<?xml version="1.0" ?><!-- Uploaded to: SVG Repo, www.svgrepo.com, Generator: SVG Repo Mixer Tools -->
<svg width="800px" height="800px" viewBox="0 0 2050 2050" data-name="Layer 3" id="Layer_3" xmlns="http://www.w3.org/2000/svg"><defs><style>.cls-1{fill:#4d4d4d;}.cls-2{fill:#ffffff;}</style></defs><title/><path class="cls-1" d="M1380.4,1601.1H669.6c-113.4,0-205.7-92.3-205.7-205.7V654.6c0-113.4,92.3-205.7,205.7-205.7h710.8c113.4,0,205.7,92.3,205.7,205.7v740.8C1586.1,1508.8,1493.8,1601.1,1380.4,1601.1Z"/><path class="cls-2" d="M800.7,847H692.9a45,45,0,0,1,0-90H800.7a45,45,0,0,1,0,90Z"/><path class="cls-2" d="M1357.1,847H977.2a45,45,0,0,1,0-90h379.9a45,45,0,0,1,0,90Z"/><path class="cls-2" d="M800.7,1070H692.9a45,45,0,0,1,0-90H800.7a45,45,0,0,1,0,90Z"/><path class="cls-2" d="M1357.1,1070H977.2a45,45,0,0,1,0-90h379.9a45,45,0,0,1,0,90Z"/><path class="cls-2" d="M800.7,1293H692.9a45,45,0,0,1,0-90H800.7a45,45,0,0,1,0,90Z"/><path class="cls-2" d="M1357.1,1293H977.2a45,45,0,1,1,0-90h379.9a45,45,0,0,1,0,90Z"/></svg>